%TF.GenerationSoftware,Altium Limited,Altium Designer,26.3.0 (6)*%
G04 Layer_Physical_Order=1*
G04 Layer_Color=255*
%FSLAX45Y45*%
%MOMM*%
%TF.SameCoordinates,6B171D26-390A-45DB-84F3-A290B96A5483*%
%TF.FilePolarity,Positive*%
%TF.FileFunction,Copper,L1,Top,Signal*%
%TF.Part,Single*%
G01*
G75*
%TA.AperFunction,ConnectorPad*%
%ADD10R,2.18000X2.00000*%
%ADD11R,0.30000X1.15000*%
%TA.AperFunction,SMDPad,CuDef*%
%ADD12R,1.20000X0.60000*%
%ADD13R,1.25814X1.46213*%
%TA.AperFunction,Conductor*%
%ADD14C,0.10000*%
%TA.AperFunction,ViaPad*%
%ADD15C,1.25000*%
%TA.AperFunction,ComponentPad*%
%ADD16R,1.53000X1.53000*%
%ADD17C,1.53000*%
%ADD18C,0.32500*%
%ADD19C,1.30300*%
%ADD20R,1.95000X1.95000*%
%ADD21C,1.95000*%
%TA.AperFunction,ViaPad*%
%ADD22C,4.00000*%
%ADD23C,0.60000*%
D10*
X4489000Y4314700D02*
D03*
X5511000D02*
D03*
X4489000Y4707700D02*
D03*
X5511000D02*
D03*
D11*
X5305000Y4257200D02*
D03*
X5225000D02*
D03*
X5175000D02*
D03*
X5075000D02*
D03*
X4925000D02*
D03*
X4825000D02*
D03*
X4775000D02*
D03*
X4695000D02*
D03*
X4665000D02*
D03*
X4745000D02*
D03*
X4875000D02*
D03*
X4975000D02*
D03*
X5025000D02*
D03*
X5125000D02*
D03*
X5255000D02*
D03*
X5335000D02*
D03*
D12*
X4089000Y2405000D02*
D03*
Y2595000D02*
D03*
X4339000D02*
D03*
Y2500000D02*
D03*
Y2405000D02*
D03*
X6125000D02*
D03*
X5875000D02*
D03*
X6125000Y2500000D02*
D03*
Y2595000D02*
D03*
X5875000D02*
D03*
D13*
X7097698Y750000D02*
D03*
X6902300D02*
D03*
X7097698Y1500000D02*
D03*
X6902300D02*
D03*
X4402300Y750000D02*
D03*
X4597697D02*
D03*
X4402300Y1500000D02*
D03*
X4597697D02*
D03*
D14*
X3976748Y3616506D02*
Y3884137D01*
X3828953Y3468710D02*
X3976748Y3616506D01*
Y3884137D02*
X4634000D01*
X6121133Y3244216D02*
X6218794Y3341876D01*
X6102682Y3244216D02*
X6121133D01*
X6218794Y3341876D02*
X6303430Y3257239D01*
X6099053Y2799886D02*
Y2981346D01*
X5872283Y2256682D02*
Y2402283D01*
X5875000Y2405000D01*
X3870721Y2402702D02*
X4086702D01*
X4089000Y2405000D01*
X4340212Y2501212D02*
X4480363D01*
X4339000Y2500000D02*
X4340212Y2501212D01*
X6303430Y2511138D02*
Y3257239D01*
X5650000Y3506300D02*
X6054370D01*
X6218794Y3341876D01*
X6292292Y2500000D02*
X6303430Y2511138D01*
X6125000Y2500000D02*
X6292292D01*
X4339000Y2595000D02*
Y2794028D01*
X4344858Y2799886D02*
X5398514D01*
X4339000Y2794028D02*
X4344858Y2799886D01*
X6099053D02*
X6125000Y2773939D01*
X5398514Y2799886D02*
X6099053D01*
X5396000Y3506300D02*
X5398514Y3503786D01*
Y2799886D02*
Y3503786D01*
X6125000Y2595000D02*
Y2773939D01*
X1500000Y2373000D02*
X1501195Y2371805D01*
X2146918D01*
X2148113Y2370610D01*
X4597697Y2176303D02*
X4846971D01*
X5514758Y2595000D02*
X5655190D01*
X6889100Y2196403D02*
X7065698Y2373000D01*
X8500000D01*
X6889100Y2196403D02*
X7097698Y1987805D01*
X6680503Y2405000D02*
X6889100Y2196403D01*
X6125000Y2405000D02*
X6680503D01*
X7097698Y1500000D02*
Y1987805D01*
Y750000D02*
Y1500000D01*
X6000000Y750000D02*
X6902300D01*
X6000000Y1500000D02*
X6902300D01*
X5746000Y750000D02*
Y1500000D01*
X5649332Y1596668D02*
X5746000Y1500000D01*
X5649332Y1596668D02*
Y2589142D01*
X5655190Y2595000D01*
X5875000D01*
X4339000Y2405000D02*
X4369000D01*
X4597697Y2176303D01*
Y1500000D02*
Y2176303D01*
Y750000D02*
Y1500000D01*
X3500000Y750000D02*
X4402300D01*
X3500000Y1500000D02*
X4402300D01*
X3246000Y750000D02*
Y1500000D01*
Y2881000D01*
X1500000D02*
X3246000D01*
X3773000D01*
X4059000Y2595000D02*
X4089000D01*
X3773000Y2881000D02*
X4059000Y2595000D01*
X8122851Y2119000D02*
X8500000D01*
X8116993Y2113142D02*
X8122851Y2119000D01*
X8116993Y1455858D02*
Y2113142D01*
Y1455858D02*
X8122851Y1450000D01*
X8300000D01*
X8121509Y2627000D02*
X8500000D01*
X8115651Y2632858D02*
X8121509Y2627000D01*
X8115651Y2632858D02*
Y3626459D01*
X8121509Y3632317D01*
X8350000D01*
X1154532Y1450000D02*
X1400000D01*
X1148674Y1455858D02*
X1154532Y1450000D01*
X1148674Y1455858D02*
Y2113142D01*
X1154532Y2119000D01*
X1500000D01*
X1156896Y2627000D02*
X1500000D01*
X1151038Y2632858D02*
X1156896Y2627000D01*
X1151038Y2632858D02*
Y3616920D01*
X1156896Y3622778D01*
X1400000D01*
X3758775Y3884137D02*
X3976748D01*
X3702620Y3940291D02*
X3758775Y3884137D01*
X3702620Y3940291D02*
Y4099766D01*
X4745000Y3999695D02*
X5255000D01*
Y4257200D01*
X4745000Y3999695D02*
Y4257200D01*
X5335000Y3927210D02*
Y4257200D01*
X5322927Y3915137D02*
X5335000Y3927210D01*
X4665000Y3915137D02*
X5322927D01*
X4634000Y3506300D02*
Y3884137D01*
X4665000Y3915137D01*
Y4257200D01*
D15*
X3828953Y3468710D02*
D03*
X3825324Y3674017D02*
D03*
X6394542Y3589592D02*
D03*
X6102682Y3244216D02*
D03*
X6099053Y2981346D02*
D03*
D16*
X1400000Y1450000D02*
D03*
X3702620Y4099766D02*
D03*
X8300000Y1450000D02*
D03*
X8350000Y3632317D02*
D03*
X6000000Y750000D02*
D03*
Y1500000D02*
D03*
X3500000Y750000D02*
D03*
Y1500000D02*
D03*
X1400000Y3622778D02*
D03*
D17*
X1654000Y1450000D02*
D03*
X3956620Y4099766D02*
D03*
X8554000Y1450000D02*
D03*
X8604000Y3632317D02*
D03*
X5746000Y750000D02*
D03*
Y1500000D02*
D03*
X3246000Y750000D02*
D03*
Y1500000D02*
D03*
X1654000Y3622778D02*
D03*
D18*
X4711000Y4364700D02*
D03*
X5289000D02*
D03*
D19*
X5396000Y3506300D02*
D03*
X5650000D02*
D03*
X4634000D02*
D03*
X5142000D02*
D03*
X4380000D02*
D03*
D20*
X8500000Y2119000D02*
D03*
X1500000Y2881000D02*
D03*
D21*
X8500000Y2373000D02*
D03*
Y2627000D02*
D03*
Y2881000D02*
D03*
X1500000Y2627000D02*
D03*
Y2373000D02*
D03*
Y2119000D02*
D03*
D22*
X9750000Y250000D02*
D03*
Y4750000D02*
D03*
X250000D02*
D03*
Y250000D02*
D03*
D23*
X5872283Y2256682D02*
D03*
X3870721Y2402702D02*
D03*
X4480363Y2501212D02*
D03*
X2148113Y2370610D02*
D03*
X4846971Y2176303D02*
D03*
X5514758Y2595000D02*
D03*
X4745000Y3999695D02*
D03*
%TF.MD5,3bd154c3a649aee3ef6b07717fabaf36*%
M02*
