%TF.GenerationSoftware,Altium Limited,Altium Designer,26.3.0 (6)*%
G04 Layer_Physical_Order=2*
G04 Layer_Color=16711680*
%FSLAX45Y45*%
%MOMM*%
%TF.SameCoordinates,6B171D26-390A-45DB-84F3-A290B96A5483*%
%TF.FilePolarity,Positive*%
%TF.FileFunction,Copper,L2,Bot,Signal*%
%TF.Part,Single*%
G01*
G75*
%TA.AperFunction,Conductor*%
%ADD14C,0.10000*%
%TA.AperFunction,ViaPad*%
%ADD15C,1.25000*%
%TA.AperFunction,ComponentPad*%
%ADD16R,1.53000X1.53000*%
%ADD17C,1.53000*%
%ADD18C,0.32500*%
%ADD19C,1.30300*%
%ADD20R,1.95000X1.95000*%
%ADD21C,1.95000*%
%TA.AperFunction,ViaPad*%
%ADD22C,4.00000*%
%ADD23C,0.60000*%
D14*
X4212282Y3674017D02*
X4380000Y3506300D01*
X3825324Y3674017D02*
X4212282D01*
X6287411Y3498819D02*
X6378184Y3589592D01*
X6394542D01*
X6287411Y3498819D02*
X6433364Y3352867D01*
X5525841Y3677146D02*
X5531699Y3683004D01*
X6103226D02*
X6287411Y3498819D01*
X5525841Y3358254D02*
Y3677146D01*
X5531699Y3683004D02*
X6103226D01*
X6433364Y2262540D02*
Y3352867D01*
X5872283Y2256682D02*
X6427506D01*
X6433364Y2262540D01*
X5519983Y3352396D02*
X5525841Y3358254D01*
X5295903Y3352396D02*
X5519983D01*
X5142000Y3506300D02*
X5295903Y3352396D01*
X5650000Y2956180D02*
Y3506300D01*
X5195032Y2501212D02*
X5650000Y2956180D01*
X3870721Y2402702D02*
Y3144778D01*
X3876579Y3150636D02*
X4786336D01*
X3870721Y3144778D02*
X3876579Y3150636D01*
X4786336D02*
X5142000Y3506300D01*
X4480363Y2501212D02*
X5195032D01*
X5171996Y2252238D02*
X5514758Y2595000D01*
X2999816Y2252238D02*
X5171996D01*
X2881444Y2370610D02*
X2999816Y2252238D01*
X2148113Y2370610D02*
X2881444D01*
X8488024Y2869024D02*
X8500000Y2881000D01*
X7330912Y2869024D02*
X8488024D01*
X6638191Y2176303D02*
X7330912Y2869024D01*
X4846971Y2176303D02*
X6638191D01*
X8942628Y1455858D02*
Y3626459D01*
X8936770Y1450000D02*
X8942628Y1455858D01*
X8604000Y3632317D02*
X8936770D01*
X8554000Y1450000D02*
X8936770D01*
Y3632317D02*
X8942628Y3626459D01*
X8386344Y3849974D02*
X8604000Y3632317D01*
X5396000Y3849974D02*
X8386344D01*
X1933441Y1455858D02*
Y3616920D01*
X1927583Y3622778D02*
X1933441Y3616920D01*
X1927583Y1450000D02*
X1933441Y1455858D01*
X1654000Y3622778D02*
X1927583D01*
X1654000Y1450000D02*
X1927583D01*
X1654000Y3622778D02*
X2335784Y4304562D01*
X3950762D01*
X3956620Y4298704D01*
Y4099766D02*
Y4298704D01*
X5146208Y4099766D02*
X5396000Y3849974D01*
Y3506300D02*
Y3849974D01*
X3956620Y4099766D02*
X5146208D01*
X4380000Y3506300D02*
X4745000Y3871300D01*
Y3999695D01*
D15*
X3828953Y3468710D02*
D03*
X3825324Y3674017D02*
D03*
X6394542Y3589592D02*
D03*
X6102682Y3244216D02*
D03*
X6099053Y2981346D02*
D03*
D16*
X1400000Y1450000D02*
D03*
X3702620Y4099766D02*
D03*
X8300000Y1450000D02*
D03*
X8350000Y3632317D02*
D03*
X6000000Y750000D02*
D03*
Y1500000D02*
D03*
X3500000Y750000D02*
D03*
Y1500000D02*
D03*
X1400000Y3622778D02*
D03*
D17*
X1654000Y1450000D02*
D03*
X3956620Y4099766D02*
D03*
X8554000Y1450000D02*
D03*
X8604000Y3632317D02*
D03*
X5746000Y750000D02*
D03*
Y1500000D02*
D03*
X3246000Y750000D02*
D03*
Y1500000D02*
D03*
X1654000Y3622778D02*
D03*
D18*
X4711000Y4364700D02*
D03*
X5289000D02*
D03*
D19*
X5396000Y3506300D02*
D03*
X5650000D02*
D03*
X4634000D02*
D03*
X5142000D02*
D03*
X4380000D02*
D03*
D20*
X8500000Y2119000D02*
D03*
X1500000Y2881000D02*
D03*
D21*
X8500000Y2373000D02*
D03*
Y2627000D02*
D03*
Y2881000D02*
D03*
X1500000Y2627000D02*
D03*
Y2373000D02*
D03*
Y2119000D02*
D03*
D22*
X9750000Y250000D02*
D03*
Y4750000D02*
D03*
X250000D02*
D03*
Y250000D02*
D03*
D23*
X5872283Y2256682D02*
D03*
X3870721Y2402702D02*
D03*
X4480363Y2501212D02*
D03*
X2148113Y2370610D02*
D03*
X4846971Y2176303D02*
D03*
X5514758Y2595000D02*
D03*
X4745000Y3999695D02*
D03*
%TF.MD5,f91ef7f01d6547bf19020b4885640de9*%
M02*
