%TF.GenerationSoftware,Altium Limited,Altium Designer,26.3.0 (6)*%
G04 Layer_Color=255*
%FSLAX45Y45*%
%MOMM*%
%TF.SameCoordinates,6B171D26-390A-45DB-84F3-A290B96A5483*%
%TF.FilePolarity,Positive*%
%TF.FileFunction,Pads,Top*%
%TF.Part,Single*%
G01*
G75*
%TA.AperFunction,ConnectorPad*%
%ADD10R,2.18000X2.00000*%
%ADD11R,0.30000X1.15000*%
%TA.AperFunction,SMDPad,CuDef*%
%ADD12R,1.20000X0.60000*%
%ADD13R,1.25814X1.46213*%
%TA.AperFunction,ViaPad*%
%ADD15C,1.25000*%
%TA.AperFunction,ComponentPad*%
%ADD16R,1.53000X1.53000*%
%ADD17C,1.53000*%
%ADD18C,0.32500*%
%ADD19C,1.30300*%
%ADD20R,1.95000X1.95000*%
%ADD21C,1.95000*%
%TA.AperFunction,ViaPad*%
%ADD22C,4.00000*%
D10*
X4489000Y4314700D02*
D03*
X5511000D02*
D03*
X4489000Y4707700D02*
D03*
X5511000D02*
D03*
D11*
X5305000Y4257200D02*
D03*
X5225000D02*
D03*
X5175000D02*
D03*
X5075000D02*
D03*
X4925000D02*
D03*
X4825000D02*
D03*
X4775000D02*
D03*
X4695000D02*
D03*
X4665000D02*
D03*
X4745000D02*
D03*
X4875000D02*
D03*
X4975000D02*
D03*
X5025000D02*
D03*
X5125000D02*
D03*
X5255000D02*
D03*
X5335000D02*
D03*
D12*
X4089000Y2405000D02*
D03*
Y2595000D02*
D03*
X4339000D02*
D03*
Y2500000D02*
D03*
Y2405000D02*
D03*
X6125000D02*
D03*
X5875000D02*
D03*
X6125000Y2500000D02*
D03*
Y2595000D02*
D03*
X5875000D02*
D03*
D13*
X7097698Y750000D02*
D03*
X6902300D02*
D03*
X7097698Y1500000D02*
D03*
X6902300D02*
D03*
X4402300Y750000D02*
D03*
X4597697D02*
D03*
X4402300Y1500000D02*
D03*
X4597697D02*
D03*
D15*
X3828953Y3468710D02*
D03*
X3825324Y3674017D02*
D03*
X6394542Y3589592D02*
D03*
X6102682Y3244216D02*
D03*
X6099053Y2981346D02*
D03*
D16*
X1400000Y1450000D02*
D03*
X3702620Y4099766D02*
D03*
X8300000Y1450000D02*
D03*
X8350000Y3632317D02*
D03*
X6000000Y750000D02*
D03*
Y1500000D02*
D03*
X3500000Y750000D02*
D03*
Y1500000D02*
D03*
X1400000Y3622778D02*
D03*
D17*
X1654000Y1450000D02*
D03*
X3956620Y4099766D02*
D03*
X8554000Y1450000D02*
D03*
X8604000Y3632317D02*
D03*
X5746000Y750000D02*
D03*
Y1500000D02*
D03*
X3246000Y750000D02*
D03*
Y1500000D02*
D03*
X1654000Y3622778D02*
D03*
D18*
X4711000Y4364700D02*
D03*
X5289000D02*
D03*
D19*
X5396000Y3506300D02*
D03*
X5650000D02*
D03*
X4634000D02*
D03*
X5142000D02*
D03*
X4380000D02*
D03*
D20*
X8500000Y2119000D02*
D03*
X1500000Y2881000D02*
D03*
D21*
X8500000Y2373000D02*
D03*
Y2627000D02*
D03*
Y2881000D02*
D03*
X1500000Y2627000D02*
D03*
Y2373000D02*
D03*
Y2119000D02*
D03*
D22*
X9750000Y250000D02*
D03*
Y4750000D02*
D03*
X250000D02*
D03*
Y250000D02*
D03*
%TF.MD5,7fe48ea4372b1923779847e7428a67c1*%
M02*
