%TF.GenerationSoftware,Altium Limited,Altium Designer,26.3.0 (6)*%
G04 Layer_Color=16711935*
%FSLAX45Y45*%
%MOMM*%
%TF.SameCoordinates,6B171D26-390A-45DB-84F3-A290B96A5483*%
%TF.FilePolarity,Negative*%
%TF.FileFunction,Soldermask,Bot*%
%TF.Part,Single*%
G01*
G75*
%TA.AperFunction,ViaPad*%
%ADD31C,1.45320*%
%TA.AperFunction,ComponentPad*%
%ADD32R,1.73320X1.73320*%
%ADD33C,1.73320*%
%ADD34C,0.52820*%
%ADD35C,1.50620*%
%ADD36R,2.15320X2.15320*%
%ADD37C,2.15320*%
%TA.AperFunction,ViaPad*%
%ADD38C,4.20320*%
D31*
X3828953Y3468710D02*
D03*
X3825324Y3674017D02*
D03*
X6394542Y3589592D02*
D03*
X6102682Y3244216D02*
D03*
X6099053Y2981346D02*
D03*
D32*
X1400000Y1450000D02*
D03*
X3702620Y4099766D02*
D03*
X8300000Y1450000D02*
D03*
X8350000Y3632317D02*
D03*
X6000000Y750000D02*
D03*
Y1500000D02*
D03*
X3500000Y750000D02*
D03*
Y1500000D02*
D03*
X1400000Y3622778D02*
D03*
D33*
X1654000Y1450000D02*
D03*
X3956620Y4099766D02*
D03*
X8554000Y1450000D02*
D03*
X8604000Y3632317D02*
D03*
X5746000Y750000D02*
D03*
Y1500000D02*
D03*
X3246000Y750000D02*
D03*
Y1500000D02*
D03*
X1654000Y3622778D02*
D03*
D34*
X4711000Y4364700D02*
D03*
X5289000D02*
D03*
D35*
X5396000Y3506300D02*
D03*
X5650000D02*
D03*
X4634000D02*
D03*
X5142000D02*
D03*
X4380000D02*
D03*
D36*
X8500000Y2119000D02*
D03*
X1500000Y2881000D02*
D03*
D37*
X8500000Y2373000D02*
D03*
Y2627000D02*
D03*
Y2881000D02*
D03*
X1500000Y2627000D02*
D03*
Y2373000D02*
D03*
Y2119000D02*
D03*
D38*
X9750000Y250000D02*
D03*
Y4750000D02*
D03*
X250000D02*
D03*
Y250000D02*
D03*
%TF.MD5,bc1cf7702f1217dd7015bb83ce1d195a*%
M02*
